# xmcd
#
# Track frame offsets:
#	150
#	1297
#	20285
#	32985
#	40957
#	56660
#	79520
#	96492
#	111790
#	123335
#	148347
#	170857
#	192215
#	203787
#	218780
#	231510
#	249320
#	270967
#
# Disc length: 3930 seconds
#
# Revision: 1
# Processed by: cddbd v1.5PL3 Copyright (c) Steve Scherf et al.
# Submitted via: CDex 1.50Beta5
#
DISCID=000f5812
DTITLE=Feel So Bat - Feel So Best Live!
DYEAR=2002
DGENRE=Metal
TTITLE0=Intro (1996.5.25 On Air East)
TTITLE1=F.S.B. (1999.10.31 Hibiya Yagai Ongaku-Dou)
TTITLE2=時計仕掛けの暴れん坊 (1999.10.31 Hibiya Yagai Ongaku-Dou)
TTITLE3=「愛＋元気」新発売！ (New Studio Recording)
TTITLE4=有酸素運動 (2000.9.29 Shinjuku Loft)
TTITLE5=バリバリ最強Ｎｏ.１ (2000.9.29 Shinjuku Loft)
TTITLE6=大好きQueen (2000.9.29 Shinjuku Loft)
TTITLE7=Do You Wanna Touch Me (1999.10.31 Hibiya Yagai Ongaku-Dou)
TTITLE8=Dear Friend (2000.9.29 Shinjuku Loft)
TTITLE9=Heaven (2001.1.26 Shinjuku Loft)
TTITLE10=Long Winding Road (2000.9.29 Shinjuku Loft)
TTITLE11=Sakebi (2000.9.29 Shinjuku Loft)
TTITLE12=Short In All My Body (2000.9.29 Shinjuku Loft)
TTITLE13=爆走するのかい？ (2000.9.29 Shinjuku Loft)
TTITLE14=Son Of A Bitch (2000.9.29 Shinjuku Loft)
TTITLE15=未来はきっと眩しいワ (1999.10.31 Hibiya Yagai Ongaku-Dou)
TTITLE16=愛されたい Yeah,Yeah (2000.9.29 Shinjuku Loft)
TTITLE17=Top Of Yhe World (1997.1.18 Akasaka Blitz)
EXTD=
EXTT0=
EXTT1=
EXTT2=
EXTT3=
EXTT4=
EXTT5=
EXTT6=
EXTT7=
EXTT8=
EXTT9=
EXTT10=
EXTT11=
EXTT12=
EXTT13=
EXTT14=
EXTT15=
EXTT16=
EXTT17=
PLAYORDER=
